<svg width="116" height="36" viewBox="0 0 116 36" fill="none" xmlns="http://www.w3.org/2000/svg">
<path fill-rule="evenodd" clip-rule="evenodd" d="M116 16H58V13H116V16Z" fill="#FF9416"/>
<mask id="mask0_26_132" style="mask-type:alpha" maskUnits="userSpaceOnUse" x="5" y="0" width="111" height="30">
<path d="M5 4.41761L5.73864 0H28.9489L28.2102 4.41761H19.2188L15 28.5L9.90057 29.0909L13.9915 4.41761H5Z" fill="black"/>
<path d="M31.3937 29.0909L36.2233 0H55.1437L54.4051 4.41761H40.7545L39.4477 12.3153H52.1182L51.3795 16.733H38.7091L37.4023 24.6733H51.1665L50.4278 29.0909H31.3937Z" fill="black"/>
<path d="M67.5815 0L72.2406 10.6534H72.4679L80.6497 0H86.8003L75.4509 14.5455L82.1128 29.0909H76.1043L71.3884 18.5085H71.1611L62.9224 29.0909H56.7435L68.377 14.5455L61.6866 0H67.5815Z" fill="black"/>
<path d="M91.7203 4.41761L92.459 0H115.669L114.931 4.41761H105.939L101.848 29.0909L97 28L100.712 4.41761H91.7203Z" fill="black"/>
</mask>
<g mask="url(#mask0_26_132)">
<path d="M131.074 -5.70114L4.61116 -28L-5.99999 32.1788L120.463 54.4777L131.074 -5.70114Z" fill="black"/>
</g>
<path fill-rule="evenodd" clip-rule="evenodd" d="M10.0403 27.5527L14.9597 28.4472L14.4955 30.9999H96.4136L97.0403 27.5527L101.96 28.4472L100.586 35.9999H8.50447L10.0403 27.5527Z" fill="#FF9416"/>
<path fill-rule="evenodd" clip-rule="evenodd" d="M63 16H5V13H63V16Z" fill="#FF9416"/>
</svg>
